Coordinates
version=1
nRows=40
nColumns=30
inDegrees=yes

Units are S.I. units (second, meters, Newtons, ...)
Angles are in degrees.

endheader
time	floatyaw	floatroll	floatpitch	floatx	floaty	floatz	pro_sup_l	deviation_l	flexion_l	cmc_flexion_l	cmc_abduction_l	mp_flexion_l	ip_flexion_l	2mcp_flexion_l	2mcp_abduction_l	2pm_flexion_l	2md_flexion_l	3mcp_flexion_l	3mcp_abduction_l	3pm_flexion_l	3md_flexion_l	4mcp_flexion_l	4mcp_abduction_l	4pm_flexion_l	4md_flexion_l	5mcp_flexion_l	5mcp_abduction_l	5pm_flexion_l	5md_flexion_l
-0.495000	3.029614	-4.103828	101.268469	-0.102926	-0.207561	-0.045496	86.497325	2.545080	0.425429	16.172429	-0.749956	-22.586861	-35.565439	39.126236	7.915309	50.475606	33.504588	24.876801	4.530004	48.667837	30.379198	15.415245	-4.449213	61.977857	40.257298	10.020403	-8.957724	59.994428	40.056860
-0.485000	3.029614	-4.103828	101.268469	-0.102816	-0.207369	-0.045407	86.517881	2.479751	0.560509	16.080048	-0.659989	-22.630520	-35.546946	39.034926	7.888151	50.513133	33.528442	24.822247	4.564519	48.787891	30.456196	15.284687	-4.429328	62.037783	40.294119	10.283133	-9.156661	59.921332	39.980957
-0.475000	3.029614	-4.103828	101.268469	-0.102637	-0.207095	-0.045255	86.627430	2.418032	0.724195	16.038409	-0.594944	-22.686923	-35.565584	38.881713	7.824167	50.552891	33.555426	24.783842	4.589160	48.820844	30.481861	15.097606	-4.402344	62.051854	40.308862	10.579011	-9.354468	59.755458	39.858063
-0.465000	3.029614	-4.103828	101.268469	-0.102389	-0.206722	-0.045042	86.839432	2.376803	0.917380	16.059147	-0.581738	-22.731064	-35.606815	38.687155	7.732233	50.570723	33.570048	24.764974	4.588300	48.721878	30.430095	14.879021	-4.368862	61.992137	40.285245	10.838566	-9.490990	59.526474	39.712032
-0.455000	3.029614	-4.103828	101.268469	-0.102075	-0.206248	-0.044776	87.129245	2.366999	1.138457	16.129074	-0.627264	-22.744980	-35.650386	38.486684	7.632671	50.549676	33.561364	24.756852	4.554540	48.494671	30.304439	14.664501	-4.330783	61.857398	40.221940	11.009558	-9.528686	59.286511	39.574049
-0.445000	3.029614	-4.103828	101.268469	-0.101696	-0.205676	-0.044464	87.443233	2.391727	1.380819	16.213545	-0.711748	-22.726033	-35.679713	38.318463	7.548682	50.490364	33.529253	24.744740	4.494551	48.202285	30.142955	14.489464	-4.292238	61.681499	40.136510	11.083294	-9.468701	59.084978	39.467459
-0.435000	3.029614	-4.103828	101.268469	-0.101239	-0.205010	-0.044103	87.726042	2.448388	1.630189	16.271350	-0.792855	-22.685082	-35.686423	38.209942	7.497279	50.414318	33.486101	24.720664	4.428274	47.948474	30.005193	14.377083	-4.259030	61.526442	40.060394	11.102788	-9.351002	58.948339	39.397745
-0.425000	3.029614	-4.103828	101.268469	-0.100675	-0.204243	-0.043672	87.951802	2.532587	1.863310	16.274460	-0.819705	-22.637794	-35.669703	38.168236	7.484204	50.357112	33.452310	24.694210	4.381016	47.835086	29.945799	14.330369	-4.237336	61.460253	40.025954	11.142856	-9.236326	58.874393	39.352996
-0.415000	3.029614	-4.103828	101.268469	-0.099969	-0.203357	-0.043139	88.140899	2.640012	2.050851	16.223257	-0.750629	-22.596338	-35.633944	38.176007	7.503663	50.352494	33.447006	24.692119	4.372055	47.915422	29.987748	14.332486	-4.232702	61.526774	40.050534	11.268536	-9.176700	58.840365	39.313352
-0.405000	3.029614	-4.103828	101.268469	-0.099088	-0.202327	-0.042473	88.351894	2.765127	2.166515	16.150530	-0.566250	-22.566178	-35.587693	38.191986	7.541125	50.413762	33.478056	24.742804	4.405101	48.164867	30.108357	14.354747	-4.249122	61.719759	40.124846	11.494727	-9.188832	58.817331	39.262931
-0.395000	3.029614	-4.103828	101.268469	-0.098012	-0.201130	-0.041647	88.652502	2.900051	2.200296	16.112230	-0.271806	-22.547543	-35.543984	38.156436	7.577364	50.521953	33.536586	24.851470	4.465107	48.481788	30.244942	14.367158	-4.286975	61.975378	40.212612	11.773726	-9.245743	58.782399	39.196924
-0.385000	3.029614	-4.103828	101.268469	-0.096731	-0.199747	-0.040650	89.084851	3.037522	2.169541	16.166845	0.111903	-22.538116	-35.519440	38.003922	7.593065	50.629292	33.599730	24.980696	4.523512	48.721328	30.319084	14.345246	-4.339781	62.191864	40.264171	12.022975	-9.294037	58.722852	39.119640
-0.375000	3.029614	-4.103828	101.268469	-0.095239	-0.198165	-0.039479	89.643142	3.177256	2.121048	16.349449	0.563935	-22.533753	-35.529519	37.683196	7.573577	50.679813	33.641559	25.053520	4.550803	48.753531	30.271123	14.270854	-4.392235	62.271799	40.239180	12.179837	-9.289500	58.631587	39.034839
-0.365000	3.029614	-4.103828	101.268469	-0.093524	-0.196378	-0.038139	90.276573	3.330266	2.121675	16.651930	1.076897	-22.526514	-35.579918	37.176421	7.512504	50.638953	33.647535	24.985636	4.531445	48.522906	30.089353	14.130809	-4.423093	62.167300	40.126322	12.249288	-9.230003	58.498694	38.935053
-0.355000	3.029614	-4.103828	101.268469	-0.091564	-0.194387	-0.036629	90.918547	3.516336	2.240749	17.023320	1.661672	-22.501903	-35.657909	36.504374	7.412146	50.516041	33.624627	24.733238	4.473231	48.075925	29.815630	13.919205	-4.413720	61.901607	39.946828	12.310401	-9.162853	58.305775	38.797629
-0.345000	3.029614	-4.103828	101.268469	-0.089312	-0.192187	-0.034933	91.528058	3.754882	2.530484	17.396798	2.340340	-22.438309	-35.729379	35.710083	7.279603	50.364402	33.600108	24.328008	4.404164	47.532952	29.518676	13.643989	-4.358041	61.551200	39.737352	12.473453	-9.158384	58.026187	38.590569
-0.335000	3.029614	-4.103828	101.268469	-0.086696	-0.189752	-0.033015	92.118469	4.054344	3.009518	17.733789	3.129989	-22.310519	-35.745691	34.830454	7.119718	50.255894	33.607923	23.875410	4.357037	47.016082	29.248123	13.332886	-4.267308	61.197498	39.522346	12.815336	-9.264441	57.630554	38.285202
-0.325000	3.029614	-4.103828	101.268469	-0.083610	-0.187032	-0.030815	92.752807	4.407005	3.651912	18.061172	4.023453	-22.096950	-35.660161	33.878993	6.928913	50.243217	33.669406	23.515903	4.350604	46.578514	28.999803	13.034109	-4.166299	60.879210	39.295545	13.338229	-9.470021	57.096665	37.870226
-0.315000	3.029614	-4.103828	101.268469	-0.079933	-0.183952	-0.028266	93.504659	4.794641	4.382868	18.476864	4.975228	-21.788727	-35.449401	32.855873	6.694962	50.332020	33.779586	23.371391	4.379119	46.181422	28.717879	12.810739	-4.083104	60.577097	39.025544	13.979960	-9.700729	56.423270	37.362593
-0.305000	3.029614	-4.103828	101.268469	-0.075566	-0.180437	-0.025324	94.406859	5.205755	5.083523	19.113997	5.904370	-21.397959	-35.131516	31.776683	6.404560	50.479022	33.907715	23.503241	4.416551	45.730349	28.334668	12.727570	-4.037901	60.240349	38.683800	14.667109	-9.849013	55.642130	36.810671
-0.295000	3.029614	-4.103828	101.268469	-0.070458	-0.176429	-0.021988	95.418848	5.657269	5.607589	20.076621	6.726318	-20.961219	-34.771494	30.690709	6.054526	50.617387	34.012906	23.895251	4.432286	45.144657	27.823491	12.826974	-4.035483	59.834886	38.276569	15.372477	-9.822307	54.815851	36.283852
-0.285000	3.029614	-4.103828	101.268469	-0.064619	-0.171908	-0.018305	96.432305	6.206773	5.809131	21.378038	7.412207	-20.532907	-34.465216	29.664287	5.658620	50.696346	34.067321	24.460990	4.407929	44.416272	27.230128	13.095761	-4.063482	59.379945	37.857569	16.137136	-9.583271	54.013199	35.846328
-0.275000	3.029614	-4.103828	101.268469	-0.058107	-0.166893	-0.014344	97.312415	6.942980	5.574839	22.915622	8.049265	-20.165890	-34.301548	28.733558	5.244333	50.713829	34.074106	25.068368	4.344707	43.623133	26.659634	13.440313	-4.096088	58.948214	37.508896	17.041604	-9.161659	53.271967	35.523770
-0.265000	3.029614	-4.103828	101.268469	-0.050995	-0.161452	-0.010175	97.953278	7.953768	4.851873	24.499350	8.859134	-19.886400	-34.318261	27.859855	4.841128	50.720885	34.067888	25.571918	4.258328	42.889892	26.222473	13.697153	-4.102350	58.626524	37.297042	18.141805	-8.634060	52.575284	35.282109
-0.255000	3.029614	-4.103828	101.268469	-0.043347	-0.155712	-0.005844	98.319644	9.285386	3.666898	25.922568	10.143414	-19.679537	-34.481292	26.923160	4.468006	50.789473	34.095023	25.842827	4.167144	42.318480	25.971529	13.691755	-4.057185	58.454604	37.227423	19.405564	-8.086493	51.860830	35.035417
-0.245000	3.029614	-4.103828	101.268469	-0.035211	-0.149856	-0.001368	98.455664	10.912907	2.136675	27.039813	12.167674	-19.497994	-34.708205	25.761939	4.129080	50.960490	34.185987	25.790798	4.082577	41.929642	25.869974	13.323931	-3.951401	58.374720	37.225675	20.688515	-7.583563	51.055629	34.681889
-0.235000	3.029614	-4.103828	101.268469	-0.026614	-0.144115	0.003258	98.460280	12.737231	0.466974	27.812818	15.038390	-19.288295	-34.922819	24.237119	3.820264	51.210413	34.341401	25.379313	4.006685	41.653881	25.811688	12.631622	-3.796035	58.231476	37.163048	21.775450	-7.160607	50.108298	34.146666
-0.225000	3.029614	-4.103828	101.268469	-0.017586	-0.138741	0.008046	98.447064	14.611870	-1.071339	28.304535	18.636365	-19.014047	-35.098863	22.289798	3.541797	51.467720	34.544064	24.639228	3.935978	41.382749	25.683459	11.792314	-3.618222	57.842480	36.919108	22.481986	-6.837657	49.000218	33.407892
-0.215000	3.029614	-4.103828	101.268469	-0.008183	-0.133974	0.013000	98.509915	16.388385	-2.197234	28.629820	22.638436	-18.661455	-35.258965	19.974857	3.306545	51.672145	34.786479	23.679868	3.868152	41.049727	25.433692	11.061251	-3.450198	57.111374	36.449769	22.767422	-6.638710	47.746460	32.500973
-0.205000	3.029614	-4.103828	101.268469	0.001477	-0.130013	0.018083	98.703065	17.958354	-2.694214	28.892575	26.614438	-18.231229	-35.434296	17.465904	3.136791	51.832517	35.087883	22.686062	3.808826	40.685848	25.110890	10.685460	-3.317527	56.110825	35.821070	22.785168	-6.597117	46.407519	31.512780
-0.195000	3.029614	-4.103828	101.268469	0.011192	-0.127001	0.023202	99.029626	19.270145	-2.472764	29.141635	30.156672	-17.731727	-35.621520	15.030429	3.050924	52.038257	35.483156	21.885419	3.775200	40.414447	24.854661	10.837228	-3.233398	55.074131	35.189490	22.828134	-6.739339	45.107442	30.572674
-0.185000	3.029614	-4.103828	101.268469	0.020671	-0.125011	0.028195	99.433026	20.314794	-1.588929	29.362989	32.990675	-17.182935	-35.773308	12.975646	3.049503	52.415302	35.991225	21.482412	3.792906	40.397352	24.847216	11.583094	-3.201581	54.298181	34.743777	23.199955	-7.056363	44.026716	29.832082
-0.175000	3.029614	-4.103828	101.268469	0.029568	-0.124052	0.032855	99.796785	21.096965	-0.212976	29.505016	35.026152	-16.628334	-35.832197	11.575508	3.111514	53.055900	36.588669	21.580768	3.884529	40.776998	25.248751	12.882024	-3.224377	54.019451	34.643154	24.095712	-7.482492	43.350934	29.425244
-0.165000	3.029614	-4.103828	101.268469	0.037532	-0.124071	0.036962	99.964010	21.616038	1.427802	29.518298	36.335380	-16.141250	-35.784368	11.003345	3.204643	53.964336	37.209452	22.134813	4.054503	41.648050	26.141192	14.607524	-3.308291	54.331721	34.979290	25.561091	-7.898767	43.199370	29.423172
-0.155000	3.029614	-4.103828	101.268469	0.044263	-0.124959	0.040326	99.780067	21.871034	3.100033	29.388398	37.083483	-15.811048	-35.691752	11.296544	3.302304	55.045775	37.770389	22.965056	4.280424	43.053013	27.497263	16.592242	-3.461880	55.176262	35.767501	27.533985	-8.165678	43.581180	29.806928
-0.145000	3.029614	-4.103828	101.268469	0.049565	-0.126543	0.042820	99.146174	21.881800	4.595326	29.146595	37.455776	-15.707131	-35.673234	12.363657	3.394172	56.139484	38.204056	23.840602	4.519066	44.971858	29.183644	18.682208	-3.686113	56.390225	36.956594	29.916018	-8.173908	44.404226	30.476981
-0.135000	3.029614	-4.103828	101.268469	0.053387	-0.128595	0.044412	98.061429	21.705893	5.750015	28.855396	37.614767	-15.838719	-35.841994	14.023361	3.482881	57.077425	38.480063	24.589453	4.725780	47.294232	30.999546	20.775796	-3.964316	57.776230	38.445337	32.616762	-7.890026	45.519423	31.291643
-0.125000	3.029614	-4.103828	101.268469	0.055851	-0.130840	0.045175	96.633928	21.435371	6.464872	28.578465	37.686870	-16.137820	-36.237745	16.054950	3.572417	57.741148	38.608032	25.176034	4.875632	49.802833	32.740690	22.829377	-4.260775	59.159765	40.101340	35.553024	-7.373372	46.765466	32.111954
-0.115000	3.029614	-4.103828	101.268469	0.057229	-0.132990	0.045284	95.054749	21.174151	6.722100	28.353116	37.758793	-16.480928	-36.796010	18.244289	3.659912	58.091956	38.626767	25.702470	4.972642	52.205217	34.264088	24.832967	-4.531318	60.416634	41.784310	38.626048	-6.753621	47.994446	32.833781
-0.105000	3.029614	-4.103828	101.268469	0.057879	-0.134797	0.044975	93.543277	21.009966	6.586896	28.181350	37.871636	-16.740379	-37.373105	20.417739	3.736472	58.161625	38.587302	26.336884	5.041845	54.213687	35.523992	26.776504	-4.739866	61.469024	43.373614	41.709345	-6.179298	49.082721	33.401453
